<?xml version="1.0" standalone="no"?>
<!DOCTYPE svg PUBLIC "-//W3C//DTD SVG 20010904//EN"
 "http://www.w3.org/TR/2001/REC-SVG-20010904/DTD/svg10.dtd">
<svg version="1.0" xmlns="http://www.w3.org/2000/svg"
 width="775.000000pt" height="1024.000000pt" viewBox="0 0 775.000000 1024.000000"
 preserveAspectRatio="xMidYMid meet">

<g transform="translate(0.000000,1024.000000) scale(0.100000,-0.100000)"
fill="#000000" stroke="none">
<path d="M4680 8511 l0 -1731 515 0 c283 0 515 -1 515 -2 0 -2 -44 -48 -97
-103 -508 -526 -800 -1224 -902 -2155 -29 -257 -31 -446 -31 -2447 l0 -2073
970 0 970 0 1 2138 c0 1175 2 2146 4 2157 1 11 6 70 9 130 30 507 153 1269
292 1805 86 332 228 722 331 910 114 208 254 370 378 438 69 37 79 37 -135 2
-330 -54 -714 -165 -964 -279 -66 -30 -66 -30 -66 -8 -1 12 -1 468 -1 1012 0
571 -4 1028 -10 1080 -35 329 -233 626 -510 765 -167 84 -158 83 -746 88
l-523 3 0 -1730z"/>
<path d="M3680 7623 c-723 -75 -1287 -226 -1801 -483 -368 -183 -635 -374
-909 -650 -578 -581 -898 -1354 -959 -2315 -5 -71 -9 -1040 -10 -2152 l-1
-2023 970 0 970 0 0 2038 c0 1120 3 2075 6 2122 31 515 152 859 394 1122 179
195 466 341 785 397 141 25 252 33 505 35 l205 2 3 957 2 957 -62 -2 c-35 0
-79 -3 -98 -5z"/>
</g>
</svg>
